<?xml version="1.0" encoding="utf-8"?>
<svg version="1.1" xmlns="http://www.w3.org/2000/svg" x="0px" y="0px" viewBox="0 0 1000 1000" enable-background="new 0 0 1000 1000" xml:space="preserve">
<metadata> Svg Vector Icons : http://www.onlinewebfonts.com/icon </metadata>
<g><path d="M405.6,307.4h175c12,0,21.9-9.8,21.9-21.9c0-12.1-9.8-21.9-21.9-21.9h-175c-12.1,0-21.9,9.8-21.9,21.9C383.7,297.6,393.5,307.4,405.6,307.4z M580.6,373h-175c-36.3,0-65.6,29.4-65.6,65.6v65.6v166.2c0,36.2,29.4,65.6,65.6,65.6h175c36.2,0,65.6-29.4,65.6-65.6V504.2v-65.6C646.2,402.4,616.8,373,580.6,373z M427.4,670.4c0,12-9.8,21.9-21.8,21.9c-12.1,0-21.9-9.8-21.9-21.9V438.6c0-12.1,9.8-21.9,21.9-21.9c12,0,21.8,9.8,21.8,21.9V670.4z M514.9,670.4c0,12-9.8,21.9-21.9,21.9c-12,0-21.8-9.8-21.8-21.9V438.6c0-12.1,9.8-21.9,21.8-21.9c12.1,0,21.9,9.8,21.9,21.9V670.4z M602.4,670.4c0,12-9.8,21.9-21.9,21.9c-12.1,0-21.9-9.8-21.9-21.9V438.6c0-12.1,9.8-21.9,21.9-21.9c12,0,21.9,9.8,21.9,21.9V670.4z M500,10C229.4,10,10,229.4,10,500c0,270.6,219.4,490,490,490c270.6,0,490-219.4,490-490C990,229.4,770.6,10,500,10z M733.7,373H686c2.5,6.8,3.9,14.2,3.9,21.8v319.2c0,36.2-29.4,65.6-65.6,65.6H361.8c-36.2,0-65.6-29.4-65.6-65.6V394.9c0-7.7,1.4-15,3.9-21.8h-47.6c-12,0-21.8-9.8-21.8-21.9c0-12.1,9.8-21.9,21.8-21.9H340v-21.8v-21.9c0-36.3,29.4-65.6,65.6-65.6h175c36.2,0,65.6,29.4,65.6,65.6v21.9v21.8h87.5c12.1,0,21.9,9.8,21.9,21.9C755.5,363.2,745.7,373,733.7,373z"/></g>
</svg>